{"asset":{"generator":"3D Builder","version":"2.0"},"scene":0,"scenes":[{"nodes":[0]}],"nodes":[{"mesh":0,"matrix":[1,0,0,0,0,-1.1920928955078125E-7,-0.99999988079071045,0,0,0.99999988079071045,-1.1920928955078125E-7,0,0,0.015234786085784435,-2.5731070607548645E-9,1]}],"meshes":[{"primitives":[{"attributes":{"POSITION":0},"mode":4,"indices":1,"material":0}]}],"materials":[{"pbrMetallicRoughness":{"baseColorFactor":[0.90625,1,0.0898437574505806,1],"metallicFactor":0,"roughnessFactor":0.40000000596046448},"alphaMode":"OPAQUE"}],"accessors":[{"bufferView":0,"byteOffset":0,"count":32886,"componentType":5126,"type":"VEC3","min":[-0.010386469773948193,-0.010389698669314384,-0.015234787948429585],"max":[0.010386469773948193,0.010389696806669235,0.015234787948429585]},{"bufferView":1,"byteOffset":0,"count":197316,"componentType":5125,"type":"SCALAR"}],"bufferViews":[{"buffer":0,"byteOffset":0,"byteLength":394632,"byteStride":12,"target":34962},{"buffer":0,"byteOffset":394632,"byteLength":789264,"target":34963}],"buffers":[{"byteLength":1183896,"uri":"Concept.bin"}]}